/* XPM */
static char * stick_toggled_pressed_xpm[] = {
"32 35 12 1",
" 	c None",
".	c #33393B",
"+	c #3E596F",
"@	c #3A7BBE",
"#	c #3A81CC",
"$	c #3A7ABD",
"%	c #3F596E",
"&	c #FFFFFF",
"*	c #3A7ABC",
"=	c #3A79BC",
"-	c #3B5368",
";	c #3A5268",
"................................",
"................................",
"................................",
"................................",
"................................",
"................................",
".....+@##################$%.....",
".....$####################$.....",
".....######################.....",
".....######################.....",
".....######################.....",
".....######################.....",
".....######################.....",
".....###########&##########.....",
".....##########&&&#########.....",
".....#########&&&&&########.....",
".....########&&&&&&&#######.....",
".....#######&&&&&&&&&######.....",
".....########&&&&&&&#######.....",
".....#########&&&&&########.....",
".....##########&&&#########.....",
".....###########&##########.....",
".....######################.....",
".....######################.....",
".....######################.....",
".....######################.....",
".....######################.....",
".....*####################=.....",
".....-=##################=;.....",
"................................",
"................................",
"................................",
"................................",
"................................",
"................................"};
