/* XPM */
static char * close_prelight_xpm[] = {
"32 35 5 1",
" 	c None",
".	c #EDEDED",
"+	c #FFB4B4",
"@	c #F15D5D",
"#	c #FFFFFF",
"................................",
"................................",
"................................",
"................................",
"................................",
"................................",
".....+@@@@@@@@@@@@@@@@@@@@+.....",
".....@@@@@@@@@@@@@@@@@@@@@@.....",
".....@@@@@@@@@@@@@@@@@@@@@@.....",
".....@@@@@@@@@@@@@@@@@@@@@@.....",
".....@@@@@@@@@@@@@@@@@@@@@@.....",
".....@@@@@@@@@@@@@@@@@@@@@@.....",
".....@@@@@@##@@@@@@##@@@@@@.....",
".....@@@@@@###@@@@###@@@@@@.....",
".....@@@@@@@###@@###@@@@@@@.....",
".....@@@@@@@@######@@@@@@@@.....",
".....@@@@@@@@@####@@@@@@@@@.....",
".....@@@@@@@@@####@@@@@@@@@.....",
".....@@@@@@@@######@@@@@@@@.....",
".....@@@@@@@###@@###@@@@@@@.....",
".....@@@@@@###@@@@###@@@@@@.....",
".....@@@@@@##@@@@@@##@@@@@@.....",
".....@@@@@@@@@@@@@@@@@@@@@@.....",
".....@@@@@@@@@@@@@@@@@@@@@@.....",
".....@@@@@@@@@@@@@@@@@@@@@@.....",
".....@@@@@@@@@@@@@@@@@@@@@@.....",
".....@@@@@@@@@@@@@@@@@@@@@@.....",
".....+@@@@@@@@@@@@@@@@@@@@+.....",
"................................",
"................................",
"................................",
"................................",
"................................",
"................................",
"................................"};
