/* XPM */
static char * close_pressed_xpm[] = {
"32 35 12 1",
" 	c None",
".	c #EDEDED",
"+	c #DFADAD",
"@	c #B21A1A",
"#	c #AA0000",
"$	c #B21B1B",
"%	c #E0AFAF",
"&	c #FFFFFF",
"*	c #B11A1A",
"=	c #B11B1B",
"-	c #DBAAAA",
";	c #DBABAB",
"................................",
"................................",
"................................",
"................................",
"................................",
"................................",
".....+@##################$%.....",
".....@####################$.....",
".....######################.....",
".....######################.....",
".....######################.....",
".....######################.....",
".....######&&######&&######.....",
".....######&&&####&&&######.....",
".....#######&&&##&&&#######.....",
".....########&&&&&&########.....",
".....#########&&&&#########.....",
".....#########&&&&#########.....",
".....########&&&&&&########.....",
".....#######&&&##&&&#######.....",
".....######&&&####&&&######.....",
".....######&&######&&######.....",
".....######################.....",
".....######################.....",
".....######################.....",
".....######################.....",
".....*####################=.....",
".....-*##################=;.....",
"................................",
"................................",
"................................",
"................................",
"................................",
"................................",
"................................"};
