/* XPM */
static char * hide_pressed_xpm[] = {
"32 35 13 1",
" 	c None",
".	c #EDEDED",
"+	c #BED3E9",
"@	c #4D8DD0",
"#	c #3A81CC",
"$	c #4E8DD0",
"%	c #C0D4E9",
"&	c #4F8ED0",
"*	c #FFFFFF",
"=	c #4D8DCF",
"-	c #4E8DCF",
";	c #BBCFE4",
">	c #BBCFE5",
"................................",
"................................",
"................................",
"................................",
"................................",
"................................",
".....+@##################$%.....",
".....$####################&.....",
".....######################.....",
".....######################.....",
".....######################.....",
".....######################.....",
".....######################.....",
".....######################.....",
".....######################.....",
".....######################.....",
".....#####************#####.....",
".....#####************#####.....",
".....######################.....",
".....######################.....",
".....######################.....",
".....######################.....",
".....######################.....",
".....######################.....",
".....######################.....",
".....######################.....",
".....=####################-.....",
".....;=##################->.....",
"................................",
"................................",
"................................",
"................................",
"................................",
"................................",
"................................"};
