/* XPM */
static char * maximize_toggled_inactive_xpm[] = {
"32 35 3 1",
" 	c None",
".	c #EDEDED",
"+	c #C3C6C9",
"................................",
"................................",
"................................",
"................................",
"................................",
"................................",
"................................",
"................................",
"................................",
"................................",
"................................",
".............++++++++++.........",
".............++++++++++.........",
".............++......++.........",
".............++......++.........",
".........++++++++++..++.........",
".........++++++++++..++.........",
".........++......++++++.........",
".........++......++++++.........",
".........++......++.............",
".........++......++.............",
".........++++++++++.............",
".........++++++++++.............",
"................................",
"................................",
"................................",
"................................",
"................................",
"................................",
"................................",
"................................",
"................................",
"................................",
"................................",
"................................"};
