/* XPM */
static char * shade_toggled_active_xpm[] = {
"32 35 4 1",
" 	c None",
".	c #EDEDED",
"+	c #8D9091",
"@	c #8B8E8F",
"................................",
"................................",
"................................",
"................................",
"................................",
"................................",
"................................",
"................................",
"................................",
"................................",
"................................",
"................................",
"................................",
"................................",
"................................",
"...........+++++++++++..........",
"............+++++++++...........",
".............+++++++............",
"..............@@@@@.............",
"...............@@@..............",
"................+...............",
"................................",
"................................",
"................................",
"................................",
"................................",
"................................",
"................................",
"................................",
"................................",
"................................",
"................................",
"................................",
"................................",
"................................"};
